<?xml version="1.0" encoding="UTF-8"?>
<svg version="1.1" xmlns="http://www.w3.org/2000/svg" width="215" height="206">
<path d="M0 0 C70.95 0 141.9 0 215 0 C215 67.98 215 135.96 215 206 C144.05 206 73.1 206 0 206 C0 138.02 0 70.04 0 0 Z " fill="#F5F5F5" transform="translate(0,0)"/>
<path d="M0 0 C7.34818533 4.35764479 11.98912747 10.40779949 14.84375 18.41796875 C16.28223787 24.07773353 16.27552886 29.53443023 14.3125 35.0625 C12.5 38 12.5 38 10 39.0625 C7.5 39 7.5 39 4.5 37 C4.5 37.99 4.5 38.98 4.5 40 C0.54 40 -3.42 40 -7.5 40 C-7.5 39.34 -7.5 38.68 -7.5 38 C-8.16 38 -8.82 38 -9.5 38 C-9.5 38.66 -9.5 39.32 -9.5 40 C-12.5000624 40.02721831 -15.49987256 40.04694378 -18.5 40.0625 C-19.33917969 40.07087891 -20.17835937 40.07925781 -21.04296875 40.08789062 C-26.28764281 40.10821882 -31.33348401 39.95248619 -36.5 39 C-40.63695651 33.92889202 -40.89744123 28.52690939 -40.8515625 22.2109375 C-40.29267447 17.1064268 -38.2112187 13.28879917 -35.5 9 C-34.96375 8.0925 -34.4275 7.185 -33.875 6.25 C-24.51401506 -2.61830152 -12.02321609 -5.36195177 0 0 Z " fill="#F3F3F3" transform="translate(126.5,24)"/>
<path d="M0 0 C2.48075201 2.26471054 4.88860522 4.58829804 7.2890625 6.9375 C11.74380495 10.44442491 16.23580079 12.03355597 21.52734375 13.8671875 C26.75910475 15.89477239 31.15294204 18.23331931 34.2890625 22.9375 C34.2890625 23.9275 34.2890625 24.9175 34.2890625 25.9375 C34.9490625 25.9375 35.6090625 25.9375 36.2890625 25.9375 C36.2890625 26.5975 36.2890625 27.2575 36.2890625 27.9375 C34.8040625 28.4325 34.8040625 28.4325 33.2890625 28.9375 C32.5671875 29.700625 31.8453125 30.46375 31.1015625 31.25 C26.30759226 35.8309049 20.98088934 37.72283492 14.7265625 39.6875 C9.60372529 41.47058698 7.12899582 43.84674516 3.8125 48.04296875 C-1.10712748 54.16096703 -8.26629185 55.77839694 -15.7109375 56.9375 C-24.26069168 57.37885899 -31.62568141 54.39935662 -38.1171875 48.8984375 C-40.1020944 46.97643258 -41.99766246 45.10541506 -43.7109375 42.9375 C-43.7109375 42.2775 -43.7109375 41.6175 -43.7109375 40.9375 C-44.47277344 40.79054687 -45.23460938 40.64359375 -46.01953125 40.4921875 C-54.42356352 38.66659248 -62.02653132 35.6963976 -67.7109375 28.9375 C-68.20926784 25.09323737 -68.14510479 22.76636483 -66.3359375 19.3125 C-61.22074301 14.68446689 -55.25120251 12.23038542 -48.5859375 10.6875 C-43.29015516 9.25598384 -41.01057827 6.27000823 -37.65234375 2.09765625 C-28.79352654 -7.75933755 -10.12622223 -7.70409991 0 0 Z M-39.2109375 7.875 C-44.17152536 15.4879253 -45.65319303 21.89429429 -44.7109375 30.9375 C-43.88530656 33.87474463 -42.91892437 36.72951313 -40.7109375 38.9375 C-34.68098978 39.9173665 -28.80943808 40.06089133 -22.7109375 40 C-21.84082031 39.99548828 -20.97070312 39.99097656 -20.07421875 39.98632812 C-17.95309457 39.9746736 -15.8320064 39.95674357 -13.7109375 39.9375 C-13.7109375 39.2775 -13.7109375 38.6175 -13.7109375 37.9375 C-13.0509375 37.9375 -12.3909375 37.9375 -11.7109375 37.9375 C-11.7109375 38.5975 -11.7109375 39.2575 -11.7109375 39.9375 C-7.7509375 39.9375 -3.7909375 39.9375 0.2890625 39.9375 C0.2890625 38.9475 0.2890625 37.9575 0.2890625 36.9375 C1.2790625 37.5975 2.2690625 38.2575 3.2890625 38.9375 C5.85806576 39.17434105 5.85806576 39.17434105 8.2890625 37.9375 C11.63886646 32.50850738 12.10632169 27.21254757 11.2890625 20.9375 C9.21242297 12.42197184 4.37316495 5.63593531 -2.703125 0.48828125 C-15.00264665 -6.12561247 -30.60761479 -2.91596467 -39.2109375 7.875 Z " fill="#242424" transform="translate(130.7109375,24.0625)"/>
<path d="M0 0 C43.56 0 87.12 0 132 0 C132 1.32 132 2.64 132 4 C88.44 4 44.88 4 0 4 C0 2.68 0 1.36 0 0 Z " fill="#5F5F5F" transform="translate(50,172)"/>
<path d="M0 0 C4.18531174 1.72871572 6.23950002 3.83039478 8 8 C8.54333853 12.89004676 8.52109104 14.99503871 6.25 19.375 C3.66111425 22.39536671 1.77129709 23.69404868 -2.1484375 24.37109375 C-6.34208921 24.49616757 -9.14781745 24.37572369 -12.5 21.6875 C-16.14158814 17.77279275 -16.39287308 14.42654891 -16.359375 9.29296875 C-15.74961638 5.40244364 -13.81165184 3.67776365 -11 1 C-7.54820431 -0.72589785 -3.78133961 -0.36043965 0 0 Z " fill="#F1F1F1" transform="translate(94,91)"/>
<path d="M0 0 C2.3767256 2.19390056 3.21097501 3.07865008 3.4375 6.25 C1.1875 7 1.1875 7 -1.5625 7.25 C-2.18125 6.610625 -2.8 5.97125 -3.4375 5.3125 C-5.50591353 2.87004288 -5.50591353 2.87004288 -9.1875 2.9375 C-12.42832325 3.03172655 -12.42832325 3.03172655 -14.5625 4.25 C-14.5625 6.23 -14.5625 8.21 -14.5625 10.25 C-12.88220703 10.83007812 -12.88220703 10.83007812 -11.16796875 11.421875 C-9.69507091 11.94723984 -8.22242774 12.47331905 -6.75 13 C-6.01201172 13.25265625 -5.27402344 13.5053125 -4.51367188 13.765625 C2.4187513 16.27509945 2.4187513 16.27509945 4.4375 20.25 C4.83949287 24.10913158 4.82390109 27.10428947 2.4375 30.25 C-2.56174214 33.7494695 -7.66054339 34.11229886 -13.5625 33.25 C-17.36884156 31.41479961 -19.0493474 30.27630521 -20.9375 26.5 C-21.14375 25.7575 -21.35 25.015 -21.5625 24.25 C-19.9125 23.92 -18.2625 23.59 -16.5625 23.25 C-15.9025 24.9 -15.2425 26.55 -14.5625 28.25 C-13.12510487 28.27712066 -11.68756137 28.29645067 -10.25 28.3125 C-9.44949219 28.32410156 -8.64898437 28.33570313 -7.82421875 28.34765625 C-5.39388666 28.34657855 -5.39388666 28.34657855 -2.5625 27.25 C-2.2325 25.6 -1.9025 23.95 -1.5625 22.25 C-4.57811898 19.74646726 -7.35164673 18.47335822 -11.0625 17.25 C-14.72034715 16.04411632 -17.77747658 14.9770021 -20.5625 12.25 C-21.32555834 9.20337734 -21.12482687 6.32887878 -20.5625 3.25 C-15.77380565 -3.35509565 -6.83818857 -3.35911018 0 0 Z " fill="#1F1F1F" transform="translate(177.5625,122.75)"/>
<path d="M0 0 C6.27 0 12.54 0 19 0 C19 1.65 19 3.3 19 5 C14.38 5 9.76 5 5 5 C5 8.3 5 11.6 5 15 C8.96 15 12.92 15 17 15 C17 16.65 17 18.3 17 20 C13.04 20 9.08 20 5 20 C5 23.3 5 26.6 5 30 C9.62 30 14.24 30 19 30 C19 31.65 19 33.3 19 35 C12.73 35 6.46 35 0 35 C0 23.45 0 11.9 0 0 Z " fill="#202020" transform="translate(50,121)"/>
<path d="M0 0 C6.27 0 12.54 0 19 0 C19 1.65 19 3.3 19 5 C14.38 5 9.76 5 5 5 C5 8.3 5 11.6 5 15 C8.96 15 12.92 15 17 15 C17 16.32 17 17.64 17 19 C13.04 19 9.08 19 5 19 C5 22.63 5 26.26 5 30 C9.62 30 14.24 30 19 30 C19 31.65 19 33.3 19 35 C12.73 35 6.46 35 0 35 C0 23.45 0 11.9 0 0 Z " fill="#222222" transform="translate(123,121)"/>
<path d="M0 0 C14.52 0 29.04 0 44 0 C38.37813646 6.74623625 34.33917468 10.24162926 25.58984375 11.484375 C16.81288537 11.82819491 10.12172238 10.19261174 3.27734375 4.58984375 C1.875 3.25 1.875 3.25 0 1 C0 0.67 0 0.34 0 0 Z " fill="#E1E1E1" transform="translate(92,66)"/>
<path d="M0 0 C0 0.66 0 1.32 0 2 C-1.24394531 1.93039063 -2.48789063 1.86078125 -3.76953125 1.7890625 C-13.65730988 1.39848083 -22.13113352 1.10942503 -30 8 C-35.83505304 14.45117665 -38.63034875 22.50816228 -40 31 C-42 29 -42 29 -42.1953125 26.3984375 C-42.17210938 25.40070312 -42.14890625 24.40296875 -42.125 23.375 C-42.10695313 22.37210938 -42.08890625 21.36921875 -42.0703125 20.3359375 C-42.04710938 19.56507812 -42.02390625 18.79421875 -42 18 C-47.93473632 19.74085599 -53.51566553 21.51566553 -58 26 C-58.44338664 28.40461502 -58.44338664 28.40461502 -58 31 C-56.15612058 32.87219694 -56.15612058 32.87219694 -53.6875 34.25 C-52.88699219 34.75015625 -52.08648437 35.2503125 -51.26171875 35.765625 C-48.94477142 37.11668855 -48.94477142 37.11668855 -46 38 C-46.33 38.99 -46.66 39.98 -47 41 C-53.12297484 40.61731407 -57.8283963 36.1716037 -62 32 C-62.43062079 28.19618304 -62.4153961 25.79302892 -60.625 22.375 C-55.50980551 17.74696689 -49.54026501 15.29288542 -42.875 13.75 C-37.57921766 12.31848384 -35.29964077 9.33250823 -31.94140625 5.16015625 C-23.79001038 -3.90970676 -10.71982762 -3.11849531 0 0 Z " fill="#202020" transform="translate(125,21)"/>
<path d="M0 0 C6.14177399 0.25590725 11.01526358 2.41601316 16 6 C19 9.41814159 19 9.41814159 19 12.5 C17.41071318 16.47321705 14.46434618 18.13861989 10.875 20.25 C9 21 9 21 6 21 C6 20.34 6 19.68 6 19 C5.01 19.33 4.02 19.66 3 20 C2.34 19.67 1.68 19.34 1 19 C1 19.66 1 20.32 1 21 C1.66 21.33 2.32 21.66 3 22 C1.35 22.66 -0.3 23.32 -2 24 C-1.7525 23.04867187 -1.7525 23.04867187 -1.5 22.078125 C-0.82902157 17.94741407 -0.93372161 13.92553867 -1 9.75 C-1.04551862 6.82770487 -1.047344 3.92349185 -1 1 C-0.67 0.67 -0.34 0.34 0 0 Z " fill="#E0E0E0" transform="translate(144,38)"/>
<path d="M0 0 C-0.66 0 -1.32 0 -2 0 C-1.85895309 2.91697011 -1.71235186 5.8334802 -1.5625 8.75 C-1.52318359 9.575 -1.48386719 10.4 -1.44335938 11.25 C-1.40146484 12.04921875 -1.35957031 12.8484375 -1.31640625 13.671875 C-1.27974854 14.4050293 -1.24309082 15.13818359 -1.20532227 15.89355469 C-0.99885215 18.01177605 -0.56867914 19.9519456 0 22 C-7.38952624 20.82705933 -13.59634506 18.40365494 -19 13 C-19.4375 10.75 -19.4375 10.75 -19 8 C-14.54113087 3.18911489 -6.63128858 -2.21042953 0 0 Z " fill="#E5E5E5" transform="translate(85,39)"/>
<path d="M0 0 C2.765625 -0.37109375 2.765625 -0.37109375 6 0 C8.046875 2.58984375 8.046875 2.58984375 9.75 5.9375 C11.62921146 10.19721578 11.62921146 10.19721578 15 13 C15.226875 12.34 15.45375 11.68 15.6875 11 C17.40414844 7.07623213 19.19754215 3.272188 22 0 C24.8125 -0.5 24.8125 -0.5 27 0 C25.5616112 4.1268956 23.46706868 7.20584932 20.9375 10.75 C15.83434043 18.37651391 15.82874354 26.06255324 16 35 C14.35 35 12.7 35 11 35 C11.04382813 33.88625 11.08765625 32.7725 11.1328125 31.625 C11.24496795 18.74415928 7.45966958 11.27566099 0 1 C0 0.67 0 0.34 0 0 Z " fill="#232323" transform="translate(81,121)"/>
<path d="M0 0 C11 0 11 0 13.75 1.5625 C15.55433184 5.08094709 15.02389008 7.24573639 14 11 C12.44140625 12.71484375 12.44140625 12.71484375 11 14 C11.3609375 14.55429688 11.721875 15.10859375 12.09375 15.6796875 C12.5578125 16.40414062 13.021875 17.12859375 13.5 17.875 C13.9640625 18.59429687 14.428125 19.31359375 14.90625 20.0546875 C16 22 16 22 16 24 C14.68 24 13.36 24 12 24 C11.16151196 22.54462432 10.32936066 21.08559627 9.5 19.625 C9.0359375 18.81289062 8.571875 18.00078125 8.09375 17.1640625 C7 15 7 15 7 13 C5.68 13 4.36 13 3 13 C3 16.63 3 20.26 3 24 C2.01 24 1.02 24 0 24 C0 16.08 0 8.16 0 0 Z " fill="#1D1D1D" transform="translate(165,91)"/>
<path d="M0 0 C1.65 0 3.3 0 5 0 C6.34146494 3.43438215 7.67175905 6.87298417 9 10.3125 C9.3815625 11.28896484 9.763125 12.26542969 10.15625 13.27148438 C10.5171875 14.20927734 10.878125 15.14707031 11.25 16.11328125 C11.58515625 16.97735596 11.9203125 17.84143066 12.265625 18.73168945 C13 21 13 21 13 24 C11.0625 23.6875 11.0625 23.6875 9 23 C8.67 22.01 8.34 21.02 8 20 C4.37 20 0.74 20 -3 20 C-3.66 21.32 -4.32 22.64 -5 24 C-5.99 24 -6.98 24 -8 24 C-6.5102402 15.50836915 -3.31428738 7.9105161 0 0 Z " fill="#262626" transform="translate(141,91)"/>
<path d="M0 0 C4.18531174 1.72871572 6.23950002 3.83039478 8 8 C8.54333853 12.89004676 8.52109104 14.99503871 6.25 19.375 C3.66111425 22.39536671 1.77129709 23.69404868 -2.1484375 24.37109375 C-6.34208921 24.49616757 -9.14781745 24.37572369 -12.5 21.6875 C-16.14158814 17.77279275 -16.39287308 14.42654891 -16.359375 9.29296875 C-15.74961638 5.40244364 -13.81165184 3.67776365 -11 1 C-7.54820431 -0.72589785 -3.78133961 -0.36043965 0 0 Z M-10.5 4.375 C-12.8465251 8.48141892 -12.72610187 12.39116395 -12 17 C-10.78829159 19.87905095 -10.78829159 19.87905095 -8 21 C-3.88219201 21.27501606 -0.3201207 20.96008778 3.0625 18.5 C4.51070232 14.63812713 4.64881797 11.06443442 4 7 C2.68620182 4.26938424 2.68620182 4.26938424 0 3 C-3.97000471 2.22715072 -6.93989063 2.41693985 -10.5 4.375 Z " fill="#222222" transform="translate(94,91)"/>
<path d="M0 0 C3.55924151 0.31208381 5.48647242 2.02232741 8.0625 4.375 C9.06990234 5.28378906 9.06990234 5.28378906 10.09765625 6.2109375 C12 8 12 8 13.296875 9.546875 C15.9024741 11.77000084 19.01334485 12.71076759 22.1875 13.875 C36.15262713 19.22894069 36.15262713 19.22894069 40 25 C40 25.99 40 26.98 40 28 C40.66 28 41.32 28 42 28 C42 28.66 42 29.32 42 30 C41.01 30.33 40.02 30.66 39 31 C38.278125 31.763125 37.55625 32.52625 36.8125 33.3125 C31.22390534 38.65271268 25.60435177 40.45683202 18 41 C18 40.34 18 39.68 18 39 C19.485 38.505 19.485 38.505 21 38 C20.67 37.01 20.34 36.02 20 35 C21.65 35 23.3 35 25 35 C25 35.66 25 36.32 25 37 C26.62974564 36.23925157 28.25366648 35.46601567 29.875 34.6875 C30.77992188 34.25824219 31.68484375 33.82898437 32.6171875 33.38671875 C35.26449476 32.0800612 35.26449476 32.0800612 37 29 C37.30615946 26.51400388 37.30615946 26.51400388 36 24 C33.50174372 22.01391471 30.81664323 20.4893197 28 19 C27.31035156 18.62488281 26.62070313 18.24976562 25.91015625 17.86328125 C23.51383487 16.7802812 21.59923481 16.85559807 19 17 C18.67 17.66 18.34 18.32 18 19 C17.01 19 16.02 19 15 19 C13.60546875 16.98828125 13.60546875 16.98828125 12.1875 14.3125 C8.63219198 8.09071096 5.01585525 4.26983552 -2 2 C-1.34 1.34 -0.68 0.68 0 0 Z " fill="#2C2C2C" transform="translate(125,22)"/>
<path d="M0 0 C3 1.875 3 1.875 5 4 C5 4.66 5 5.32 5 6 C0.125 5.125 0.125 5.125 -1 4 C-3.33297433 3.95907063 -5.66705225 3.95758277 -8 4 C-8.33 5.32 -8.66 6.64 -9 8 C-8.40832031 8.18175781 -7.81664062 8.36351563 -7.20703125 8.55078125 C2.32350031 11.58251641 2.32350031 11.58251641 5 14 C5.5625 17.5 5.5625 17.5 5 21 C3.21788314 23.40198359 1.8158228 23.86453689 -1.09375 24.34765625 C-5.6454471 24.64351656 -7.41730972 24.47566554 -11.0625 21.5 C-11.701875 20.675 -12.34125 19.85 -13 19 C-12.67 18.34 -12.34 17.68 -12 17 C-11.01 17 -10.02 17 -9 17 C-8.34 17.99 -7.68 18.98 -7 20 C-3.41642759 20.25015873 -3.41642759 20.25015873 0 20 C0.33 18.68 0.66 17.36 1 16 C0.22914062 15.67386719 -0.54171875 15.34773438 -1.3359375 15.01171875 C-2.33882812 14.57472656 -3.34171875 14.13773438 -4.375 13.6875 C-5.37273438 13.25824219 -6.37046875 12.82898438 -7.3984375 12.38671875 C-10 11 -10 11 -12 8 C-12.375 5.5 -12.375 5.5 -12 3 C-8.89154791 -0.75604628 -4.5480851 -0.83756815 0 0 Z " fill="#262626" transform="translate(63,91)"/>
<path d="M0 0 C0.66 0 1.32 0 2 0 C3.10977901 3.32933702 3.13301537 5.87228308 3.125 9.375 C3.12886719 11.05722656 3.12886719 11.05722656 3.1328125 12.7734375 C3 16 3 16 2.3671875 18.7890625 C2.24601562 19.51867187 2.12484375 20.24828125 2 21 C2.66 21.66 3.32 22.32 4 23 C2.9790625 23.2475 2.9790625 23.2475 1.9375 23.5 C-1.11974192 25.06114481 -2.24666637 26.31912115 -4.375 28.9375 C-7.62742216 32.85179362 -10.12249202 34.56543883 -15 36 C-15.66 35.67 -16.32 35.34 -17 35 C-16.28972656 34.43410156 -15.57945313 33.86820313 -14.84765625 33.28515625 C-13.92855469 32.55167969 -13.00945312 31.81820312 -12.0625 31.0625 C-11.14597656 30.33160156 -10.22945312 29.60070312 -9.28515625 28.84765625 C-7.59148731 27.48061289 -7.59148731 27.48061289 -6 26 C-8.64 25.67 -11.28 25.34 -14 25 C-13.67 24.34 -13.34 23.68 -13 23 C-12.01 23 -11.02 23 -10 23 C-10 22.01 -10 21.02 -10 20 C-7.69 20.33 -5.38 20.66 -3 21 C0.85880936 14.24708362 0.28506966 7.61241576 0 0 Z " fill="#262626" transform="translate(141,41)"/>
<path d="M0 0 C0.66 0.33 1.32 0.66 2 1 C2.33 1.99 2.66 2.98 3 4 C5.21261348 5.64973488 5.21261348 5.64973488 7.875 7.125 C8.75929688 7.64320312 9.64359375 8.16140625 10.5546875 8.6953125 C14.83455496 10.97882006 18.13850658 11.13507134 22.9375 11.125 C24.77634766 11.12886719 24.77634766 11.12886719 26.65234375 11.1328125 C29.35358965 11.02564522 31.42344062 10.65746688 34 10 C36.25 10.9375 36.25 10.9375 38 12 C29.60708355 15.7122515 21.17277079 17.3835029 12.25 14.5 C5.31492638 11.61372658 0.34820306 7.04506279 -4 1 C-2.68 1.33 -1.36 1.66 0 2 C0 1.34 0 0.68 0 0 Z " fill="#2A2A2A" transform="translate(91,65)"/>
<path d="M0 0 C1.32 0 2.64 0 4 0 C4 6.93 4 13.86 4 21 C6.64 21 9.28 21 12 21 C12 21.99 12 22.98 12 24 C8.04 24 4.08 24 0 24 C0 16.08 0 8.16 0 0 Z " fill="#262626" transform="translate(113,91)"/>
<path d="M0 0 C3.55924151 0.31208381 5.48647242 2.02232741 8.0625 4.375 C9.06990234 5.28378906 9.06990234 5.28378906 10.09765625 6.2109375 C12 8 12 8 13.33203125 9.56640625 C15.81092701 11.69697942 18.55956943 12.47838431 21.625 13.5625 C27.89134809 15.78269618 27.89134809 15.78269618 29 18 C25.7 17.67 22.4 17.34 19 17 C18.67 17.66 18.34 18.32 18 19 C17.01 19 16.02 19 15 19 C13.60546875 16.98828125 13.60546875 16.98828125 12.1875 14.3125 C8.63219198 8.09071096 5.01585525 4.26983552 -2 2 C-1.34 1.34 -0.68 0.68 0 0 Z " fill="#222222" transform="translate(125,22)"/>
<path d="M0 0 C1.90389849 2.85584773 2.69462177 4.9311762 3.625 8.1875 C3.88539063 9.08855469 4.14578125 9.98960938 4.4140625 10.91796875 C4.60742188 11.60503906 4.80078125 12.29210937 5 13 C2.03 13 -0.94 13 -4 13 C-3.52140759 11.39566191 -3.04210442 9.79153584 -2.5625 8.1875 C-2.29566406 7.29417969 -2.02882812 6.40085937 -1.75390625 5.48046875 C-1.19612127 3.64526945 -0.60655425 1.81966274 0 0 Z " fill="#D2D2D2" transform="translate(143,94)"/>
<path d="M0 0 C3.375 -0.125 3.375 -0.125 7 0 C7.66 0.66 8.32 1.32 9 2 C8.625 4.625 8.625 4.625 8 7 C5.36 7 2.72 7 0 7 C0 4.69 0 2.38 0 0 Z " fill="#EDEDED" transform="translate(168,94)"/>
<path d="M0 0 C-2.50040308 2.50040308 -4.33358691 2.78364454 -7.75 3.625 C-8.77609375 3.88539062 -9.8021875 4.14578125 -10.859375 4.4140625 C-13.98495856 4.99719376 -16.82889349 5.10443764 -20 5 C-20 4.67 -20 4.34 -20 4 C-18.35 3.67 -16.7 3.34 -15 3 C-16.32 2.34 -17.64 1.68 -19 1 C-18.22914062 0.93941406 -17.45828125 0.87882812 -16.6640625 0.81640625 C-15.15972656 0.69072266 -15.15972656 0.69072266 -13.625 0.5625 C-12.62726563 0.48128906 -11.62953125 0.40007812 -10.6015625 0.31640625 C-3.06666667 -0.6 -3.06666667 -0.6 0 0 Z " fill="#3A3A3A" transform="translate(129,76)"/>
<path d="M0 0 C-0.72726991 4.35417442 -2.76932142 6.02424195 -6.078125 8.73828125 C-8.64881951 10.42595265 -10.95482602 10.85145493 -14 11 C-3.32352941 0 -3.32352941 0 0 0 Z " fill="#191919" transform="translate(138,66)"/>
<path d="M0 0 C6.93 0.495 6.93 0.495 14 1 C10.842224 3.105184 10.04602866 3.25289344 6.4375 3.1875 C5.65246094 3.18105469 4.86742188 3.17460938 4.05859375 3.16796875 C2 3 2 3 0 2 C0 1.34 0 0.68 0 0 Z " fill="#1A1A1A" transform="translate(103,77)"/>
<path d="M0 0 C1.62853535 0.06420749 3.25449212 0.2012064 4.875 0.375 C6.20144531 0.51035156 6.20144531 0.51035156 7.5546875 0.6484375 C10 1 10 1 13 2 C13 2.66 13 3.32 13 4 C11.41590006 3.88512252 9.83271037 3.75765492 8.25 3.625 C7.36828125 3.55539063 6.4865625 3.48578125 5.578125 3.4140625 C3.00933618 3.00149945 1.24158985 2.28839043 -1 1 C-0.67 0.67 -0.34 0.34 0 0 Z " fill="#1A1A1A" transform="translate(112,19)"/>
<path d="M0 0 C0.66 0 1.32 0 2 0 C2.9807664 2.94229921 3.16488128 4.9908784 3.1875 8.0625 C3.20167969 8.94035156 3.21585938 9.81820312 3.23046875 10.72265625 C3 13 3 13 1 15 C0.67 10.05 0.34 5.1 0 0 Z " fill="#1B1B1B" transform="translate(141,41)"/>
<path d="M0 0 C1.65 0 3.3 0 5 0 C5 1.65 5 3.3 5 5 C2.69 5.33 0.38 5.66 -2 6 C-2 5.34 -2 4.68 -2 4 C-1.01 3.67 -0.02 3.34 1 3 C0.67 2.01 0.34 1.02 0 0 Z " fill="#3C3C3C" transform="translate(145,57)"/>
<path d="M0 0 C1.98 0.66 3.96 1.32 6 2 C5.67 2.66 5.34 3.32 5 4 C2.93359375 4.4140625 2.93359375 4.4140625 0.4375 4.625 C-0.38878906 4.69976562 -1.21507812 4.77453125 -2.06640625 4.8515625 C-3.02353516 4.92503906 -3.02353516 4.92503906 -4 5 C-3.67 4.34 -3.34 3.68 -3 3 C-2.01 3 -1.02 3 0 3 C0 2.01 0 1.02 0 0 Z " fill="#1F1F1F" transform="translate(131,61)"/>
<path d="M0 0 C0.33 0.66 0.66 1.32 1 2 C-0.89353366 3.89353366 -2.84526801 5.4198632 -5 7 C-6.32 6.34 -7.64 5.68 -9 5 C-2.25 1.125 -2.25 1.125 0 0 Z " fill="#313131" transform="translate(103,20)"/>
<path d="M0 0 C0.66 0.33 1.32 0.66 2 1 C0.92250558 1.82022749 -0.16229508 2.63086169 -1.25 3.4375 C-1.85328125 3.88996094 -2.4565625 4.34242187 -3.078125 4.80859375 C-5.06292756 6.03900997 -6.71987655 6.56112668 -9 7 C-9 6.01 -9 5.02 -9 4 C-7.54618103 3.30300448 -6.08677047 2.61766134 -4.625 1.9375 C-3.40683594 1.36322266 -3.40683594 1.36322266 -2.1640625 0.77734375 C-1.44992188 0.52082031 -0.73578125 0.26429687 0 0 Z " fill="#252525" transform="translate(159,55)"/>
<path d="M0 0 C-0.33 3.3 -0.66 6.6 -1 10 C-3 8 -3 8 -3.125 4.375 C-3.08375 3.26125 -3.0425 2.1475 -3 1 C-1 0 -1 0 0 0 Z " fill="#141414" transform="translate(86,42)"/>
<path d="M0 0 C2.31 0.33 4.62 0.66 7 1 C6.34 2.32 5.68 3.64 5 5 C4.01 5 3.02 5 2 5 C1.34 3.35 0.68 1.7 0 0 Z " fill="#3E3E3E" transform="translate(138,36)"/>
</svg>
